# xmcd
#
# Track frame offsets:
#	150
#	15900
#	30450
#	46875
#	69000
#	85275
#
# Disc length: 1325 seconds
#
# Revision: 1
# Processed by: cddbd v1.5.2PL0 Copyright (c) Steve Scherf et al.
# Submitted via: audiograbber 1.83.01
#
DISCID=35052b06
DTITLE=Bob Corn - from the wooden floor
DYEAR=1900
DGENRE=
TTITLE0=i miss you
TTITLE1=o Dolores!
TTITLE2=sand and the end
TTITLE3=she just floated
TTITLE4=small worlds
TTITLE5=passion, no fashion
EXTD=
EXTT0=
EXTT1=
EXTT2=
EXTT3=
EXTT4=
EXTT5=
PLAYORDER=
